<svg width="178" height="86" viewBox="0 0 178 86" fill="none" xmlns="http://www.w3.org/2000/svg">
<path d="M2 78V80H4H30H32V78V50.2539L45.4383 67.0517L47 69.0039L48.5617 67.0517L62 50.2539V78V80H64H90H92V78V38.433L93.7385 40.3453L130.52 80.8052L132 82.433L133.48 80.8052L170.262 40.3453L173.303 37H168.782H147V4V2H145H119H117V4V37H95.2183H92V4V2H90H65.5581H64.5969L63.9964 2.75061L47 23.9961L30.0036 2.75061L29.4031 2H28.4419H4H2V4V78ZM67.9613 9H85V73H69V36V30.2984L65.4383 34.7506L47 57.7984L28.5617 34.7506L25 30.2984V36V73H9V9H26.0388L45.4383 33.2494L47 35.2016L48.5617 33.2494L67.9613 9ZM124 42V9H140V42V44H142H157.479L132 72.0268L106.521 44H122H124V42Z" fill="#004A99" stroke="#004A99" stroke-width="4"/>
<path d="M5.5 75V76.5H7H27H28.5V75V40.2762L45.8287 61.937L47 63.4012L48.1713 61.937L65.5 40.2762V75V76.5H67H87H88.5V75V7V5.5H87H67H66.2791L65.8287 6.06296L47 29.5988L28.1713 6.06296L27.7209 5.5H27H7H5.5V7V75ZM130.89 76.009L132 77.2299L133.11 76.009L163.11 43.009L165.391 40.5H162H143.5V7V5.5H142H122H120.5V7V40.5H102H98.6092L100.89 43.009L130.89 76.009Z" fill="#E30016" stroke="white" stroke-width="3"/>
</svg>
