<svg width="185" height="91" viewBox="0 0 185 91" fill="none" xmlns="http://www.w3.org/2000/svg">
<path fill-rule="evenodd" clip-rule="evenodd" d="M0 86V0H33.3256L49 19.593L64.6744 0H98V35H115V0H153V35H184.345L134 90.3795L98 50.7795V86H60V63.657L49 77.407L38 63.657V86H0ZM29 38L49 63L69 38V77H89V9H69L49 34L29 9H9V77H29V38ZM104 44H124V9H144V44H164L134 77L104 44Z" fill="#004A99"/>
<path d="M9 77V9H29L49 34L69 9H89V77H69V38L49 63L29 38V77H9ZM134 77L104 44H124V9H144V44H164L134 77Z" fill="#E30016"/>
<path fill-rule="evenodd" clip-rule="evenodd" d="M3 83V3H31.8837L49 24.3953L66.1162 3H95V38H118V3H150V38H177.563L134 85.9196L95 43.0196V83H63V55.1047L49 72.6047L35 55.1047V83H3ZM29 38L49 63L69 38V77H89V9H69L49 34L29 9H9V77H29V38ZM144 44V9H124V44H104L134 77L164 44H144Z" fill="white"/>
</svg>
